<svg width="708" height="708" viewBox="0 0 708 708" fill="none" xmlns="http://www.w3.org/2000/svg">
<path fill-rule="evenodd" clip-rule="evenodd" d="M218.641 27.299L294.735 58.8183L353.553 0L412.94 59.3864L486.127 29.0714L516.15 101.553C469.394 71.4593 413.736 54 354 54C188.315 54 54 188.315 54 354C54 519.685 188.315 654 354 654C455.804 654 545.764 603.291 600 525.754V604H520.959L489.239 680.581L412.052 648.609L353.553 707.107L295.623 649.177L215.529 682.353L183.074 604H100V519.352L27.299 489.239L59.0447 412.598L0 353.553L56.0987 297.455L24.187 220.413L100 189.01V104H186.87L218.641 27.299ZM602.556 522.041L677.469 491.011L647.182 417.892C638.966 455.771 623.595 490.982 602.556 522.041ZM648.334 412.326L707.107 353.553L648.835 295.281L680.581 218.641L602.897 186.463C635.164 234.305 654 291.953 654 354C654 373.957 652.051 393.459 648.334 412.326ZM600 182.246V104H519.89C551.238 124.843 578.441 151.425 600 182.246Z" fill="#C08552"/>
<circle cx="354" cy="354" r="300" fill="#C08552"/>
<path d="M265.188 189.014C264.62 189.014 264.336 188.02 264.336 186.032C264.336 183.476 264.62 180.352 265.188 176.66C266.04 172.968 266.892 169.702 267.744 166.862C268.88 163.738 269.874 162.034 270.726 161.75C281.802 156.922 295.86 152.52 312.9 148.544C330.224 144.284 348.684 141.018 368.28 138.746C387.876 136.19 406.62 134.912 424.512 134.912C432.748 134.912 441.41 135.338 450.498 136.19C459.87 137.042 467.68 138.178 473.928 139.598C480.46 141.018 483.726 142.722 483.726 144.71C483.726 144.994 483.442 145.136 482.874 145.136C476.626 144.852 469.81 144.71 462.426 144.71C455.326 144.426 447.942 144.284 440.274 144.284C419.258 144.284 397.674 146.414 375.522 150.674C353.654 154.65 333.064 160.046 313.752 166.862C294.44 173.394 278.394 180.778 265.614 189.014H265.188ZM304.38 583.916C298.7 582.496 293.588 579.798 289.044 575.822C284.5 572.13 282.228 568.296 282.228 564.32C282.228 563.752 282.228 563.184 282.228 562.616C282.512 562.048 282.796 561.48 283.08 560.912C283.08 560.344 283.222 560.06 283.506 560.06H283.08C280.808 560.06 278.962 559.492 277.542 558.356C267.034 550.972 259.366 542.31 254.538 532.37C249.71 522.43 247.296 511.638 247.296 499.994C247.296 485.51 250.42 470.032 256.668 453.56C262.916 437.372 271.436 421.042 282.228 404.57C293.02 387.814 305.232 371.626 318.864 356.006C332.496 340.102 346.696 325.334 361.464 311.702C362.6 301.478 363.452 291.396 364.02 281.456C364.588 271.232 364.872 261.292 364.872 251.636C364.872 234.88 364.02 219.118 362.316 204.35C360.612 189.298 357.914 175.95 354.222 164.306C354.222 162.886 356.778 162.176 361.89 162.176C366.718 162.176 371.83 163.17 377.226 165.158C382.906 167.146 386.172 170.838 387.024 176.234C388.16 183.334 389.012 190.86 389.58 198.812C390.148 206.48 390.432 214.432 390.432 222.668C390.432 233.46 390.006 244.678 389.154 256.322C388.586 267.682 387.592 279.184 386.172 290.828C398.952 280.888 411.306 272.368 423.234 265.268C435.446 257.884 446.664 252.488 456.888 249.08C458.024 248.796 459.018 248.654 459.87 248.654C460.722 248.37 461.574 248.228 462.426 248.228C466.118 248.228 467.964 249.222 467.964 251.21C467.964 252.062 467.254 253.056 465.834 254.192C451.918 260.156 438.002 267.54 424.086 276.344C410.454 284.864 397.248 294.378 384.468 304.886C381.06 330.73 376.658 356.716 371.262 382.844C365.866 408.688 360.186 433.112 354.222 456.116C348.258 479.404 342.72 499.994 337.608 517.886C334.2 530.098 331.218 540.18 328.662 548.132C326.39 556.368 323.408 563.184 319.716 568.58C316.308 574.26 311.196 579.372 304.38 583.916ZM288.618 548.558C304.806 512.774 320.142 474.292 334.626 433.112C340.306 416.64 345.276 399.458 349.536 381.566C353.796 363.39 357.062 345.214 359.334 327.038C341.158 344.646 324.828 363.39 310.344 383.27C295.86 402.866 284.5 422.32 276.264 441.632C268.028 460.944 263.91 478.978 263.91 495.734C263.91 506.242 265.898 516.04 269.874 525.128C273.85 534.216 280.098 542.026 288.618 548.558Z" fill="white"/>
</svg>
