<svg width="1437" height="1204" viewBox="0 0 1437 1204" fill="none" xmlns="http://www.w3.org/2000/svg">
<path fill-rule="evenodd" clip-rule="evenodd" d="M218.641 140.299L294.735 171.818L353.553 113L412.94 172.386L486.127 142.071L516.15 214.553C469.394 184.459 413.736 167 354 167C188.315 167 54 301.315 54 467C54 632.685 188.315 767 354 767C455.804 767 545.764 716.291 600 638.754V717H520.959L489.239 793.581L412.052 761.609L353.553 820.107L295.623 762.177L215.529 795.353L183.074 717H100V632.352L27.299 602.239L59.0447 525.598L0 466.553L56.0987 410.455L24.187 333.413L100 302.01V217H186.87L218.641 140.299ZM602.556 635.041L677.469 604.011L647.182 530.892C638.966 568.771 623.595 603.982 602.556 635.041ZM648.334 525.326L707.107 466.553L648.835 408.281L680.581 331.641L602.897 299.463C635.164 347.305 654 404.953 654 467C654 486.957 652.051 506.459 648.334 525.326ZM600 295.246V217H519.89C551.238 237.843 578.441 264.425 600 295.246Z" fill="#C08552"/>
<path d="M227.516 325.198C226.34 325.198 225.752 323.14 225.752 319.024C225.752 313.732 226.34 307.264 227.516 299.62C229.28 291.976 231.044 285.214 232.808 279.334C235.16 272.866 237.218 269.338 238.982 268.75C261.914 258.754 291.02 249.64 326.3 241.408C362.168 232.588 400.388 225.826 440.96 221.122C481.532 215.83 520.34 213.184 557.384 213.184C574.436 213.184 592.37 214.066 611.186 215.83C630.59 217.594 646.76 219.946 659.696 222.886C673.22 225.826 679.982 229.354 679.982 233.47C679.982 234.058 679.394 234.352 678.218 234.352C665.282 233.764 651.17 233.47 635.882 233.47C621.182 232.882 605.894 232.588 590.018 232.588C546.506 232.588 501.818 236.998 455.954 245.818C410.678 254.05 368.048 265.222 328.064 279.334C288.08 292.858 254.858 308.146 228.398 325.198H227.516ZM308.66 1142.81C296.9 1139.87 286.316 1134.29 276.908 1126.05C267.5 1118.41 262.796 1110.47 262.796 1102.24C262.796 1101.06 262.796 1099.89 262.796 1098.71C263.384 1097.54 263.972 1096.36 264.56 1095.18C264.56 1094.01 264.854 1093.42 265.442 1093.42H264.56C259.856 1093.42 256.034 1092.24 253.094 1089.89C231.338 1074.6 215.462 1056.67 205.466 1036.09C195.47 1015.51 190.472 993.166 190.472 969.058C190.472 939.07 196.94 907.024 209.876 872.92C222.812 839.404 240.452 805.594 262.796 771.49C285.14 736.798 310.424 703.282 338.648 670.942C366.872 638.014 396.272 607.438 426.848 579.214C429.2 558.046 430.964 537.172 432.14 516.592C433.316 495.424 433.904 474.844 433.904 454.852C433.904 420.16 432.14 387.526 428.612 356.95C425.084 325.786 419.498 298.15 411.854 274.042C411.854 271.102 417.146 269.632 427.73 269.632C437.726 269.632 448.31 271.69 459.482 275.806C471.242 279.922 478.004 287.566 479.768 298.738C482.12 313.438 483.884 329.02 485.06 345.484C486.236 361.36 486.824 377.824 486.824 394.876C486.824 417.22 485.942 440.446 484.178 464.554C483.002 488.074 480.944 511.888 478.004 535.996C504.464 515.416 530.042 497.776 554.738 483.076C580.022 467.788 603.248 456.616 624.416 449.56C626.768 448.972 628.826 448.678 630.59 448.678C632.354 448.09 634.118 447.796 635.882 447.796C643.526 447.796 647.348 449.854 647.348 453.97C647.348 455.734 645.878 457.792 642.938 460.144C614.126 472.492 585.314 487.78 556.502 506.008C528.278 523.648 500.936 543.346 474.476 565.102C467.42 618.61 458.306 672.412 447.134 726.508C435.962 780.016 424.202 830.584 411.854 878.212C399.506 926.428 388.04 969.058 377.456 1006.1C370.4 1031.39 364.226 1052.26 358.934 1068.72C354.23 1085.78 348.056 1099.89 340.412 1111.06C333.356 1122.82 322.772 1133.4 308.66 1142.81ZM276.026 1069.61C309.542 995.518 341.294 915.844 371.282 830.584C383.042 796.48 393.332 760.906 402.152 723.862C410.972 686.23 417.734 648.598 422.438 610.966C384.806 647.422 350.996 686.23 321.008 727.39C291.02 767.962 267.5 808.24 250.448 848.224C233.396 888.208 224.87 925.546 224.87 960.238C224.87 981.994 228.986 1002.28 237.218 1021.1C245.45 1039.91 258.386 1056.08 276.026 1069.61Z" fill="white"/>
<path d="M934.985 790.58C922.502 790.58 912.337 787.37 904.49 780.95C896.643 774.173 890.58 765.613 886.3 755.27C882.377 744.57 879.702 732.978 878.275 720.495C876.848 708.012 876.135 695.707 876.135 683.58C876.135 675.02 876.313 666.995 876.67 659.505C877.027 652.015 877.383 645.417 877.74 639.71C878.453 627.227 879.523 613.852 880.95 599.585C882.733 584.962 884.695 569.982 886.835 554.645C878.988 555.715 871.142 556.785 863.295 557.855C855.448 558.925 847.78 559.817 840.29 560.53C846.71 569.447 849.92 581.038 849.92 595.305C849.92 606.718 847.958 619.915 844.035 634.895C840.468 649.518 835.475 664.677 829.055 680.37C822.635 695.707 815.145 710.152 806.585 723.705C798.382 736.902 789.287 747.78 779.3 756.34C769.67 764.9 759.862 769.715 749.875 770.785C737.392 772.212 727.762 768.645 720.985 760.085C714.208 751.525 710.107 740.825 708.68 727.985C708.323 725.132 707.967 722.278 707.61 719.425C707.61 716.572 707.61 713.897 707.61 711.4C707.61 689.287 710.998 666.46 717.775 642.92C724.908 619.38 733.468 595.127 743.455 570.16L709.215 572.835C701.012 571.408 695.305 569.268 692.095 566.415C689.242 563.205 687.815 560.173 687.815 557.32C687.815 554.467 688.528 552.148 689.955 550.365C691.738 548.225 693.7 547.155 695.84 547.155C709.75 547.868 729.01 547.333 753.62 545.55L769.135 506.495C769.848 504.712 772.345 505.782 776.625 509.705C781.262 513.628 785.72 518.8 790 525.22C794.28 531.283 796.242 537.168 795.885 542.875L889.51 535.385C892.363 516.482 895.573 497.578 899.14 478.675C902.707 459.415 906.452 441.047 910.375 423.57C912.158 416.437 913.763 410.73 915.19 406.45C916.973 402.17 920.183 400.387 924.82 401.1C929.1 401.813 933.558 403.418 938.195 405.915C942.832 408.412 946.042 411.265 947.825 414.475C954.958 421.252 960.13 429.812 963.34 440.155C966.55 450.142 968.155 461.377 968.155 473.86C968.155 482.063 967.442 490.802 966.015 500.075C964.945 508.992 963.34 518.443 961.2 528.43C972.97 527.003 984.205 525.755 994.905 524.685C1005.61 523.258 1015.24 521.832 1023.8 520.405C1026.29 520.048 1026.11 520.762 1023.26 522.545C1020.76 524.328 1017.38 526.29 1013.1 528.43C1009.17 530.213 1006.14 531.462 1004 532.175C989.733 536.455 974.218 540.2 957.455 543.41C951.392 566.237 943.367 589.777 933.38 614.03C923.393 638.283 912.872 661.467 901.815 683.58C901.458 702.127 902.172 718.712 903.955 733.335C906.095 747.958 909.662 759.728 914.655 768.645C917.865 774.352 921.61 778.275 925.89 780.415C930.17 782.198 934.272 783.09 938.195 783.09C942.475 783.09 946.398 782.555 949.965 781.485C953.888 780.058 956.742 779.167 958.525 778.81C962.448 777.027 965.123 776.313 966.55 776.67C968.333 777.027 968.333 777.918 966.55 779.345C965.48 780.772 962.092 783.09 956.385 786.3C951.035 789.153 943.902 790.58 934.985 790.58ZM922.145 532.175C926.782 531.818 931.24 531.462 935.52 531.105C939.8 530.392 944.08 529.857 948.36 529.5C953.353 508.457 955.85 489.732 955.85 473.325C955.85 464.765 955.137 456.918 953.71 449.785C952.283 442.295 949.787 435.697 946.22 429.99C941.583 446.397 937.303 463.16 933.38 480.28C929.457 497.4 925.712 514.698 922.145 532.175ZM903.42 656.295C911.623 638.105 919.292 619.558 926.425 600.655C933.558 581.752 939.622 563.383 944.615 545.55C940.335 546.263 935.877 546.977 931.24 547.69C926.96 548.403 922.68 549.117 918.4 549.83C914.833 568.377 911.802 586.567 909.305 604.4C906.808 622.233 904.847 639.532 903.42 656.295ZM753.085 757.945C760.575 757.945 768.065 754.022 775.555 746.175C783.045 738.328 790.178 728.342 796.955 716.215C803.732 704.088 809.617 691.783 814.61 679.3C816.75 674.307 819.068 667.708 821.565 659.505C824.062 651.302 826.202 642.563 827.985 633.29C829.768 623.66 830.66 614.743 830.66 606.54C830.66 597.267 829.055 589.598 825.845 583.535C822.635 577.115 816.928 573.905 808.725 573.905C804.802 573.905 799.987 574.797 794.28 576.58C788.573 578.363 782.153 581.573 775.02 586.21C774.307 586.923 773.772 587.28 773.415 587.28C771.988 590.133 770.74 592.63 769.67 594.77C768.957 596.91 768.422 598.515 768.065 599.585C763.072 612.425 758.078 626.335 753.085 641.315C748.448 656.295 744.525 671.097 741.315 685.72C738.462 700.343 737.035 713.54 737.035 725.31C737.035 736.367 738.462 744.57 741.315 749.92C744.525 755.27 748.448 757.945 753.085 757.945ZM1032.71 788.44C1020.59 788.44 1011.14 784.517 1004.36 776.67C997.939 768.823 993.481 758.837 990.984 746.71C988.844 734.227 987.774 721.743 987.774 709.26C987.774 700.7 988.131 692.675 988.844 685.185C989.558 677.338 990.271 670.562 990.984 664.855C992.768 650.232 995.086 636.143 997.939 622.59C1000.79 609.037 1003.47 597.445 1005.96 587.815C1008.82 578.185 1010.6 571.943 1011.31 569.09C1012.74 564.097 1015.42 561.6 1019.34 561.6C1023.26 561.6 1027.72 564.275 1032.71 569.625C1037.71 574.618 1041.27 578.72 1043.41 581.93C1051.62 584.427 1059.64 587.458 1067.49 591.025C1075.34 594.235 1081.76 597.802 1086.75 601.725C1092.1 605.648 1094.77 609.928 1094.77 614.565C1094.77 623.482 1091.03 632.398 1083.54 641.315C1076.05 650.232 1066.6 658.435 1055.18 665.925C1043.77 673.415 1032.18 679.835 1020.41 685.185C1019.34 693.745 1018.8 702.305 1018.8 710.865C1018.8 725.132 1020.59 737.615 1024.15 748.315C1027.72 759.015 1033.78 764.365 1042.34 764.365C1049.83 764.365 1056.97 761.69 1063.74 756.34C1070.88 750.99 1077.48 744.213 1083.54 736.01C1089.6 727.807 1094.95 719.603 1099.59 711.4C1104.58 702.84 1108.33 695.707 1110.82 690C1111.54 687.86 1113.14 686.79 1115.64 686.79C1117.07 686.79 1117.78 688.395 1117.78 691.605C1117.78 694.458 1115.64 700.522 1111.36 709.795C1107.08 718.355 1102.62 726.558 1097.98 734.405C1093.7 741.895 1089.42 748.493 1085.14 754.2C1079.08 762.047 1071.59 769.715 1062.67 777.205C1054.11 784.695 1044.13 788.44 1032.71 788.44ZM1022.01 670.205C1034.5 663.428 1045.55 655.403 1055.18 646.13C1065.17 636.5 1070.16 626.157 1070.16 615.1C1070.16 611.177 1067.13 607.253 1061.07 603.33C1055.36 599.05 1048.59 595.483 1040.74 592.63C1036.46 604.043 1032.71 616.17 1029.5 629.01C1026.65 641.85 1024.15 655.582 1022.01 670.205ZM1108.3 1047.38C1104.38 1047.38 1102.41 1045.78 1102.41 1042.57C1102.41 1040.43 1103.13 1038.46 1104.55 1036.68C1109.55 1025.62 1115.43 1011.54 1122.21 994.415C1129.34 977.652 1136.83 958.927 1144.68 938.24C1152.53 917.553 1160.19 895.975 1167.68 873.505C1175.17 851.035 1181.95 828.743 1188.01 806.63C1178.38 814.477 1168.58 822.68 1158.59 831.24C1148.6 839.8 1138.97 850.143 1129.7 862.27C1117.93 876.893 1108.83 894.192 1102.41 914.165C1096.35 934.495 1093.32 953.22 1093.32 970.34C1093.32 991.027 1097.6 1006.54 1106.16 1016.89C1107.23 1017.96 1107.76 1018.67 1107.76 1019.03C1107.76 1019.03 1107.59 1019.03 1107.23 1019.03C1107.23 1019.38 1107.05 1019.56 1106.69 1019.56C1105.27 1019.56 1103.48 1019.03 1101.34 1017.96C1099.56 1016.89 1097.78 1015.28 1095.99 1013.14C1088.86 1005.65 1083.69 996.555 1080.48 985.855C1076.91 975.512 1075.13 964.277 1075.13 952.15C1075.13 938.24 1077.8 924.152 1083.15 909.885C1088.5 895.618 1096.35 882.243 1106.69 869.76C1121.32 851.927 1136.12 836.412 1151.1 823.215C1166.08 810.018 1180.17 797.535 1193.36 785.765C1196.93 771.855 1199.96 758.302 1202.46 745.105C1204.96 731.908 1206.74 719.425 1207.81 707.655C1208.88 694.815 1209.59 683.223 1209.95 672.88C1210.31 662.18 1210.48 652.55 1210.48 643.99C1210.48 634.36 1209.95 626.157 1208.88 619.38C1203.17 627.227 1197.47 637.392 1191.76 649.875C1186.05 662.358 1180.7 675.377 1175.71 688.93C1171.07 702.483 1167.33 715.323 1164.47 727.45C1161.62 739.22 1160.19 748.493 1160.19 755.27C1160.19 756.697 1160.19 757.945 1160.19 759.015C1160.55 760.085 1160.73 761.155 1160.73 762.225C1160.73 764.365 1158.23 765.435 1153.24 765.435C1142.18 765.435 1134.34 763.473 1129.7 759.55C1125.06 755.627 1122.74 749.742 1122.74 741.895C1122.74 734.405 1123.1 724.953 1123.81 713.54C1124.53 701.77 1125.06 689.465 1125.42 676.625C1126.13 663.428 1126.49 650.945 1126.49 639.175C1126.49 618.845 1125.24 604.4 1122.74 595.84C1120.25 587.28 1115.97 583 1109.9 583C1107.05 583 1103.66 584.248 1099.74 586.745C1095.82 588.885 1091.36 589.955 1086.36 589.955C1084.58 589.955 1083.33 589.42 1082.62 588.35C1082.98 589.063 1084.58 587.993 1087.43 585.14C1090.64 582.287 1095.82 579.255 1102.95 576.045C1110.44 572.835 1120.6 571.23 1133.44 571.23C1139.86 571.23 1144.68 572.122 1147.89 573.905C1151.46 575.332 1153.77 579.612 1154.84 586.745C1155.91 593.878 1156.45 605.827 1156.45 622.59C1156.45 635.073 1156.09 648.983 1155.38 664.32C1154.67 679.3 1153.77 693.567 1152.7 707.12C1151.63 720.673 1150.39 731.908 1148.96 740.825C1151.1 734.048 1154.13 725.132 1158.05 714.075C1161.98 703.018 1166.26 691.07 1170.89 678.23C1175.89 665.033 1180.52 652.372 1184.8 640.245C1189.44 627.762 1193.54 617.062 1197.11 608.145C1200.68 599.228 1202.99 593.165 1204.06 589.955V589.42C1204.06 589.063 1204.06 588.885 1204.06 588.885C1204.42 588.885 1204.6 588.707 1204.6 588.35V588.885C1205.67 587.815 1207.81 587.28 1211.02 587.28C1218.51 587.28 1223.68 590.668 1226.53 597.445C1229.74 604.222 1231.71 612.603 1232.42 622.59C1233.13 632.577 1233.49 642.385 1233.49 652.015C1233.49 668.422 1232.42 685.72 1230.28 703.91C1228.5 721.743 1226.18 739.933 1223.32 758.48C1230.46 751.347 1237.06 743.857 1243.12 736.01C1249.18 728.163 1254.35 719.782 1258.63 710.865C1260.42 706.585 1262.74 703.018 1265.59 700.165C1268.44 697.312 1270.58 695.885 1272.01 695.885C1272.72 695.885 1273.08 696.598 1273.08 698.025C1273.08 700.522 1271.83 704.445 1269.33 709.795C1262.56 726.202 1254.71 740.112 1245.79 751.525C1237.23 762.582 1228.32 772.568 1219.04 781.485C1213.34 808.948 1206.92 835.698 1199.78 861.735C1192.65 887.772 1185.52 911.312 1178.38 932.355C1171.25 953.755 1165.01 971.232 1159.66 984.785C1154.31 998.695 1150.74 1007.26 1148.96 1010.47C1141.83 1023.66 1134.34 1033.11 1126.49 1038.82C1119 1044.53 1112.94 1047.38 1108.3 1047.38ZM1386.45 775.6C1382.52 775.6 1378.24 774.173 1373.61 771.32C1368.97 768.11 1365.76 764.722 1363.98 761.155C1363.98 752.952 1365.05 741.717 1367.19 727.45C1369.33 713.183 1371.64 698.56 1374.14 683.58C1376.99 668.243 1379.49 655.225 1381.63 644.525C1375.21 654.512 1367.9 665.39 1359.7 677.16C1351.49 688.93 1343.11 699.987 1334.55 710.33C1325.99 720.317 1317.25 728.698 1308.34 735.475C1299.78 741.895 1291.75 745.105 1284.26 745.105C1276.77 745.105 1270.89 742.608 1266.61 737.615C1262.33 732.265 1260.19 726.202 1260.19 719.425C1260.19 717.642 1260.54 715.323 1261.26 712.47C1264.47 696.063 1270.71 680.727 1279.98 666.46C1289.61 651.837 1300.49 638.997 1312.62 627.94C1325.1 616.883 1337.4 608.145 1349.53 601.725C1361.66 595.305 1372 592.095 1380.56 592.095C1386.98 592.095 1393.04 593.522 1398.75 596.375C1404.81 598.872 1410.52 603.152 1415.87 609.215C1416.94 610.285 1417.48 611.533 1417.48 612.96C1417.48 614.743 1416.41 616.527 1414.27 618.31C1411.77 626.87 1409.09 637.213 1406.24 649.34C1403.74 661.11 1401.25 673.415 1398.75 686.255C1396.61 698.738 1394.83 710.33 1393.4 721.03C1391.97 731.73 1391.26 739.933 1391.26 745.64C1391.26 749.563 1391.8 751.525 1392.87 751.525C1395.72 751.525 1399.29 748.493 1403.57 742.43C1408.2 736.367 1412.66 729.412 1416.94 721.565C1421.22 713.718 1424.97 706.763 1428.18 700.7C1431.74 694.637 1433.88 691.605 1434.6 691.605C1435.67 691.605 1436.2 693.032 1436.2 695.885C1436.2 701.948 1434.24 709.438 1430.32 718.355C1426.39 727.272 1421.58 736.188 1415.87 745.105C1410.52 753.665 1404.99 760.977 1399.29 767.04C1393.94 772.747 1389.66 775.6 1386.45 775.6ZM1288.54 725.31C1293.53 725.31 1299.78 722.457 1307.27 716.75C1315.11 711.043 1323.14 703.732 1331.34 694.815C1339.9 685.898 1348.1 676.447 1355.95 666.46C1364.15 656.473 1371.11 647.022 1376.82 638.105C1382.88 628.832 1387.16 621.342 1389.66 615.635C1382.52 615.635 1374.32 618.31 1365.05 623.66C1355.77 628.653 1346.32 635.252 1336.69 643.455C1327.06 651.302 1318.14 660.04 1309.94 669.67C1301.74 678.943 1295.14 688.038 1290.15 696.955C1285.15 705.872 1282.66 713.54 1282.66 719.96C1282.66 723.527 1284.62 725.31 1288.54 725.31Z" fill="white"/>
</svg>
