<svg width="185" height="39" viewBox="0 0 185 39" fill="none" xmlns="http://www.w3.org/2000/svg">
<path d="M6.63876 0H185V35.3571L178.361 39H0V19.5V9.75V3L6.63876 0Z" fill="#5E3023"/>
<rect width="175.263" height="6" transform="matrix(1 0 0 -1 3.09808 35.1429)" fill="#390101"/>
<path d="M0 36.8571L11.0646 30.5042V6H0V36.8571Z" fill="#4A1506"/>
<path d="M27.3867 27.352C27.8134 27.0922 28.1783 26.8201 28.4814 26.5356C28.7906 26.2511 29.0442 25.9356 29.2421 25.5893C29.44 25.2491 29.5854 24.8688 29.6782 24.4482C29.7709 24.0214 29.8173 23.539 29.8173 23.0009V10.4487H32.7582V22.4721C32.7582 23.1153 32.7304 23.7029 32.6747 24.2348C32.6191 24.7605 32.5263 25.2429 32.3964 25.6821C32.2727 26.1274 32.1026 26.5356 31.8862 26.9067C31.6759 27.2778 31.413 27.6303 31.0976 27.9643C30.7884 28.2983 30.4203 28.6199 29.9936 28.9291C29.573 29.2384 29.0844 29.5507 28.5278 29.8661L27.3867 27.352ZM35.5229 19.4755C35.5229 18.69 35.6806 17.954 35.996 17.2675C36.3176 16.581 36.7722 15.9811 37.3598 15.4677C37.9536 14.9544 38.6679 14.5493 39.5029 14.2524C40.344 13.9555 41.2872 13.8071 42.3325 13.8071C43.3777 13.8071 44.3178 13.9555 45.1528 14.2524C45.9939 14.5493 46.7083 14.9544 47.2958 15.4677C47.8896 15.9811 48.3442 16.581 48.6596 17.2675C48.9812 17.954 49.142 18.69 49.142 19.4755C49.142 20.261 48.9812 20.997 48.6596 21.6835C48.3442 22.3701 47.8896 22.97 47.2958 23.4833C46.7083 23.9967 45.9939 24.4018 45.1528 24.6987C44.3178 24.9955 43.3777 25.144 42.3325 25.144C41.2872 25.144 40.344 24.9955 39.5029 24.6987C38.6679 24.4018 37.9536 23.9967 37.3598 23.4833C36.7722 22.97 36.3176 22.3701 35.996 21.6835C35.6806 20.997 35.5229 20.261 35.5229 19.4755ZM38.4081 19.4755C38.4081 19.9147 38.4947 20.3321 38.6679 20.728C38.8473 21.1176 39.1039 21.464 39.4379 21.767C39.7781 22.0639 40.1894 22.302 40.6718 22.4814C41.1604 22.6546 41.714 22.7411 42.3325 22.7411C42.9509 22.7411 43.5014 22.6546 43.9838 22.4814C44.4724 22.302 44.8837 22.0639 45.2177 21.767C45.5579 21.464 45.8146 21.1176 45.9877 20.728C46.1671 20.3321 46.2568 19.9147 46.2568 19.4755C46.2568 19.0364 46.1671 18.6189 45.9877 18.2231C45.8146 17.8273 45.5579 17.4809 45.2177 17.184C44.8837 16.881 44.4724 16.6428 43.9838 16.4697C43.5014 16.2903 42.9509 16.2006 42.3325 16.2006C41.714 16.2006 41.1604 16.2903 40.6718 16.4697C40.1894 16.6428 39.7781 16.881 39.4379 17.184C39.1039 17.4809 38.8473 17.8273 38.6679 18.2231C38.4947 18.6189 38.4081 19.0364 38.4081 19.4755ZM53.5673 16.0615H50.9233V14.0019H53.5673V10.5971H56.3134V14.0019H58.9575V16.0615H56.3134V24.9492H53.5673V16.0615ZM60.8779 19.4384C60.8779 18.6962 61.0294 17.9881 61.3325 17.3139C61.6355 16.6336 62.0716 16.0336 62.6406 15.5141C63.2096 14.9946 63.9054 14.5802 64.728 14.2709C65.5567 13.9617 66.4968 13.8071 67.5483 13.8071C68.5935 13.8071 69.5336 13.9648 70.3686 14.2802C71.2097 14.5895 71.921 15.0162 72.5024 15.5605C73.0899 16.1048 73.5384 16.7449 73.8476 17.4809C74.163 18.2169 74.3207 19.0055 74.3207 19.8466C74.3207 19.9518 74.3176 20.0662 74.3115 20.1899C74.3115 20.3074 74.3053 20.4156 74.2929 20.5146H63.9394C64.0569 20.8424 64.2455 21.1424 64.5053 21.4145C64.7713 21.6866 65.1022 21.9217 65.498 22.1196C65.8938 22.3175 66.3515 22.4721 66.871 22.5834C67.3906 22.6886 67.9658 22.7411 68.5966 22.7411C69.2275 22.7411 69.8552 22.6762 70.4799 22.5463C71.1046 22.4103 71.7014 22.2402 72.2704 22.0361L73.1982 24.1328C72.8395 24.2997 72.4745 24.4482 72.1035 24.5781C71.7385 24.7018 71.3551 24.8069 70.9531 24.8935C70.5572 24.9739 70.1398 25.0357 69.7006 25.079C69.2677 25.1223 68.81 25.144 68.3276 25.144C67.0968 25.144 66.0175 24.9955 65.0898 24.6987C64.162 24.4018 63.3858 23.9967 62.7612 23.4833C62.1365 22.97 61.6664 22.367 61.351 21.6743C61.0356 20.9815 60.8779 20.2363 60.8779 19.4384ZM71.4077 18.3715C71.3087 18.0685 71.1541 17.787 70.9438 17.5273C70.7397 17.2613 70.483 17.0325 70.1738 16.8408C69.8645 16.6428 69.5058 16.4882 69.0976 16.3769C68.6894 16.2656 68.241 16.2099 67.7524 16.2099C67.2328 16.2099 66.7597 16.2687 66.3329 16.3862C65.9062 16.5037 65.532 16.6614 65.2104 16.8593C64.8888 17.0572 64.6197 17.2861 64.4033 17.5458C64.193 17.8056 64.0384 18.0808 63.9394 18.3715H71.4077ZM78.5883 26.3222C78.8728 26.5078 79.1821 26.6717 79.5161 26.8139C79.85 26.9562 80.1964 27.0737 80.5551 27.1664C80.92 27.2592 81.2911 27.3273 81.6684 27.3705C82.0457 27.42 82.4199 27.4448 82.791 27.4448C84.0527 27.4448 85.0237 27.1726 85.704 26.6284C86.3906 26.0903 86.7338 25.28 86.7338 24.1977V23.8266C86.4926 23.9936 86.2205 24.1482 85.9174 24.2905C85.6205 24.4265 85.2989 24.544 84.9526 24.643C84.6124 24.742 84.2506 24.8193 83.8671 24.8749C83.4898 24.9244 83.1064 24.9492 82.7167 24.9492C81.8818 24.9492 81.1334 24.8286 80.4716 24.5873C79.816 24.3399 79.2594 23.9812 78.8017 23.5112C78.3502 23.0349 78.0038 22.4505 77.7626 21.7578C77.5214 21.065 77.4008 20.2734 77.4008 19.3828V14.0019H80.1376V18.622C80.1376 19.9456 80.3881 20.9228 80.8891 21.5536C81.3963 22.1783 82.1941 22.4907 83.2827 22.4907C84.0496 22.4907 84.7268 22.3577 85.3144 22.0917C85.9081 21.8196 86.3813 21.4732 86.7338 21.0527V14.0019H89.4799V23.6967C89.4799 24.742 89.3315 25.6481 89.0346 26.415C88.7377 27.1881 88.3048 27.8282 87.7358 28.3354C87.173 28.8425 86.4802 29.2198 85.6577 29.4672C84.8351 29.7208 83.9011 29.8476 82.8559 29.8476C81.8354 29.8476 80.8829 29.7394 79.9985 29.5229C79.114 29.3064 78.3038 29.0126 77.5678 28.6415L78.5883 26.3222ZM92.5136 21.498C92.5136 20.9723 92.628 20.4929 92.8569 20.06C93.0857 19.6271 93.429 19.256 93.8867 18.9467C94.3443 18.6313 94.9134 18.3901 95.5937 18.2231C96.2802 18.0499 97.0781 17.9633 97.9872 17.9633C98.6614 17.9633 99.3696 18.0128 100.112 18.1118C100.86 18.2107 101.63 18.3622 102.422 18.5663C102.391 18.22 102.286 17.9015 102.106 17.6108C101.927 17.3139 101.677 17.0603 101.355 16.85C101.039 16.6336 100.656 16.4666 100.205 16.3491C99.7592 16.2315 99.2521 16.1728 98.683 16.1728C98.3738 16.1728 98.0336 16.1913 97.6625 16.2285C97.2914 16.2656 96.908 16.3212 96.5121 16.3954C96.1163 16.4697 95.7236 16.5624 95.3339 16.6738C94.9505 16.7851 94.5917 16.9181 94.2578 17.0727L93.4228 14.8183C93.8372 14.6699 94.2794 14.5338 94.7495 14.4101C95.2257 14.2864 95.7112 14.1813 96.206 14.0947C96.7008 14.0019 97.1956 13.9308 97.6904 13.8813C98.1852 13.8318 98.6645 13.8071 99.1284 13.8071C101.176 13.8071 102.697 14.3297 103.693 15.3749C104.689 16.4202 105.186 18.0221 105.186 20.1806V24.9492H102.44V23.9194C102.156 24.0864 101.844 24.2441 101.503 24.3925C101.169 24.541 100.804 24.6708 100.409 24.7822C100.013 24.8935 99.586 24.9801 99.1284 25.0419C98.6769 25.11 98.1975 25.144 97.6904 25.144C96.8369 25.144 96.0854 25.0512 95.436 24.8657C94.7927 24.6801 94.2547 24.4234 93.8217 24.0956C93.3888 23.7678 93.061 23.3844 92.8383 22.9453C92.6218 22.4999 92.5136 22.0175 92.5136 21.498ZM95.4081 21.4052C95.4081 21.5846 95.4545 21.7578 95.5473 21.9247C95.6401 22.0856 95.7885 22.2309 95.9926 22.3608C96.1967 22.4845 96.4565 22.5865 96.7719 22.6669C97.0935 22.7411 97.4801 22.7783 97.9316 22.7783C98.414 22.7783 98.881 22.735 99.3325 22.6484C99.784 22.5618 100.205 22.4474 100.594 22.3051C100.984 22.1629 101.336 21.999 101.652 21.8134C101.967 21.6279 102.23 21.4361 102.44 21.2382V20.7558C102.02 20.6383 101.602 20.5393 101.188 20.4589C100.78 20.3785 100.387 20.3167 100.01 20.2734C99.6386 20.2239 99.2861 20.1899 98.9521 20.1713C98.6243 20.1528 98.3367 20.1435 98.0893 20.1435C97.5759 20.1435 97.1492 20.1775 96.809 20.2455C96.4689 20.3136 96.1936 20.4064 95.9833 20.5239C95.7731 20.6352 95.6246 20.7682 95.538 20.9228C95.4514 21.0774 95.4081 21.2382 95.4081 21.4052ZM108.879 23.3442C108.879 23.0968 108.928 22.8648 109.027 22.6484C109.132 22.4257 109.281 22.234 109.473 22.0732C109.664 21.9062 109.896 21.7763 110.168 21.6835C110.441 21.5908 110.747 21.5444 111.087 21.5444C111.427 21.5444 111.733 21.5908 112.005 21.6835C112.277 21.7763 112.506 21.9062 112.692 22.0732C112.884 22.234 113.029 22.4257 113.128 22.6484C113.233 22.8648 113.286 23.0968 113.286 23.3442C113.286 23.5916 113.233 23.8266 113.128 24.0493C113.029 24.2657 112.884 24.4544 112.692 24.6152C112.506 24.776 112.277 24.9028 112.005 24.9955C111.733 25.0945 111.427 25.144 111.087 25.144C110.747 25.144 110.441 25.0945 110.168 24.9955C109.896 24.9028 109.664 24.776 109.473 24.6152C109.281 24.4544 109.132 24.2657 109.027 24.0493C108.928 23.8266 108.879 23.5916 108.879 23.3442ZM116.857 14.0019H119.603V14.9296C120.29 14.5091 120.958 14.2184 121.607 14.0576C122.263 13.8906 122.903 13.8071 123.528 13.8071C124.4 13.8071 125.201 13.9462 125.931 14.2245C126.66 14.5029 127.285 14.9234 127.805 15.4863C128.207 15.177 128.602 14.9173 128.992 14.707C129.382 14.4905 129.771 14.3173 130.161 14.1874C130.551 14.0514 130.947 13.9555 131.349 13.8998C131.751 13.838 132.165 13.8071 132.592 13.8071C133.489 13.8071 134.302 13.9308 135.032 14.1782C135.761 14.4194 136.383 14.7812 136.896 15.2636C137.416 15.746 137.815 16.3491 138.093 17.0727C138.378 17.7901 138.52 18.622 138.52 19.5683V24.9492H135.783V20.0136C135.783 19.4137 135.697 18.8787 135.523 18.4086C135.356 17.9324 135.118 17.5335 134.809 17.2119C134.506 16.8841 134.141 16.6367 133.714 16.4697C133.294 16.2965 132.83 16.2099 132.323 16.2099C132.044 16.2099 131.76 16.2377 131.469 16.2934C131.178 16.3429 130.894 16.4233 130.616 16.5346C130.344 16.6459 130.087 16.7882 129.846 16.9614C129.604 17.1284 129.394 17.3263 129.215 17.5551V24.9492H126.478V20.0136C126.478 19.4137 126.391 18.8787 126.218 18.4086C126.051 17.9324 125.813 17.5335 125.504 17.2119C125.201 16.8841 124.833 16.6367 124.4 16.4697C123.973 16.2965 123.503 16.2099 122.99 16.2099C122.674 16.2099 122.356 16.2439 122.034 16.312C121.719 16.3738 121.413 16.4635 121.116 16.581C120.825 16.6985 120.55 16.8408 120.29 17.0078C120.036 17.1747 119.808 17.3634 119.603 17.5737V24.9492H116.857V14.0019ZM141.461 21.498C141.461 20.9723 141.575 20.4929 141.804 20.06C142.033 19.6271 142.376 19.256 142.834 18.9467C143.292 18.6313 143.861 18.3901 144.541 18.2231C145.227 18.0499 146.025 17.9633 146.935 17.9633C147.609 17.9633 148.317 18.0128 149.059 18.1118C149.807 18.2107 150.577 18.3622 151.369 18.5663C151.338 18.22 151.233 17.9015 151.054 17.6108C150.874 17.3139 150.624 17.0603 150.302 16.85C149.987 16.6336 149.603 16.4666 149.152 16.3491C148.706 16.2315 148.199 16.1728 147.63 16.1728C147.321 16.1728 146.981 16.1913 146.61 16.2285C146.239 16.2656 145.855 16.3212 145.459 16.3954C145.064 16.4697 144.671 16.5624 144.281 16.6738C143.898 16.7851 143.539 16.9181 143.205 17.0727L142.37 14.8183C142.784 14.6699 143.227 14.5338 143.697 14.4101C144.173 14.2864 144.658 14.1813 145.153 14.0947C145.648 14.0019 146.143 13.9308 146.638 13.8813C147.132 13.8318 147.612 13.8071 148.076 13.8071C150.123 13.8071 151.644 14.3297 152.64 15.3749C153.636 16.4202 154.134 18.0221 154.134 20.1806V24.9492H151.388V23.9194C151.103 24.0864 150.791 24.2441 150.451 24.3925C150.117 24.541 149.752 24.6708 149.356 24.7822C148.96 24.8935 148.533 24.9801 148.076 25.0419C147.624 25.11 147.145 25.144 146.638 25.144C145.784 25.144 145.033 25.0512 144.383 24.8657C143.74 24.6801 143.202 24.4234 142.769 24.0956C142.336 23.7678 142.008 23.3844 141.786 22.9453C141.569 22.4999 141.461 22.0175 141.461 21.498ZM144.355 21.4052C144.355 21.5846 144.402 21.7578 144.495 21.9247C144.587 22.0856 144.736 22.2309 144.94 22.3608C145.144 22.4845 145.404 22.5865 145.719 22.6669C146.041 22.7411 146.427 22.7783 146.879 22.7783C147.361 22.7783 147.828 22.735 148.28 22.6484C148.731 22.5618 149.152 22.4474 149.541 22.3051C149.931 22.1629 150.284 21.999 150.599 21.8134C150.914 21.6279 151.177 21.4361 151.388 21.2382V20.7558C150.967 20.6383 150.55 20.5393 150.135 20.4589C149.727 20.3785 149.334 20.3167 148.957 20.2734C148.586 20.2239 148.233 20.1899 147.899 20.1713C147.572 20.1528 147.284 20.1435 147.037 20.1435C146.523 20.1435 146.096 20.1775 145.756 20.2455C145.416 20.3136 145.141 20.4064 144.931 20.5239C144.72 20.6352 144.572 20.7682 144.485 20.9228C144.399 21.0774 144.355 21.2382 144.355 21.4052Z" fill="white"/>
<rect y="3" width="3.09809" height="36" fill="white"/>
<rect x="3.09808" y="35.1429" width="175.263" height="3.85714" fill="white"/>
<rect x="175.263" y="3" width="3.09809" height="36" fill="white"/>
<path d="M178.361 3L185 0V35.3571L178.361 39V3Z" fill="white"/>
<rect x="2.21289" y="3" width="173.935" height="3" fill="white"/>
<path d="M6.63876 0H185L178.361 3H0L6.63876 0Z" fill="white"/>
</svg>
